<?xml version="1.0" encoding="UTF-8" standalone="no"?>
<svg
   version="1.0"
   width="320pt"
   height="240pt"
   viewBox="0 0 320 240"
   preserveAspectRatio="xMidYMid"
   id="svg107"
   sodipodi:docname="CloudServerLogo.svg"
   inkscape:version="1.2.2 (b0a8486541, 2022-12-01)"
   inkscape:export-filename="CloudServerLogo.png"
   inkscape:export-xdpi="72"
   inkscape:export-ydpi="72"
   xmlns:inkscape="http://www.inkscape.org/namespaces/inkscape"
   xmlns:sodipodi="http://sodipodi.sourceforge.net/DTD/sodipodi-0.dtd"
   xmlns="http://www.w3.org/2000/svg"
   xmlns:svg="http://www.w3.org/2000/svg">
  <defs
     id="defs111" />
  <sodipodi:namedview
     id="namedview109"
     pagecolor="#e1e1e1"
     bordercolor="#000000"
     borderopacity="0.25"
     inkscape:showpageshadow="2"
     inkscape:pageopacity="0"
     inkscape:pagecheckerboard="0"
     inkscape:deskcolor="#d1d1d1"
     inkscape:document-units="pt"
     showgrid="false"
     inkscape:zoom="1.0074671"
     inkscape:cx="391.57608"
     inkscape:cy="269.48772"
     inkscape:window-width="1600"
     inkscape:window-height="840"
     inkscape:window-x="0"
     inkscape:window-y="0"
     inkscape:window-maximized="1"
     inkscape:current-layer="g105"
     showguides="true" />
  <g
     transform="matrix(0.1,0,0,-0.1,0,1024)"
     fill="#000000"
     stroke="none"
     id="g105">
    <rect
       style="fill:#ffffff;stroke-width:8.79141"
       id="rect621"
       width="2000"
       height="2000"
       x="645.71771"
       y="-10088.011"
       transform="scale(1,-1)" />
    <g
       id="g330"
       transform="matrix(0.3568799,0,0,0.3568799,-190.96053,6880.5693)">
      <path
         d="m 5735,8274 c -309,-29 -555,-141 -761,-348 -105,-107 -198,-243 -250,-366 l -36,-88 -32,18 c -100,59 -312,73 -461,31 -106,-30 -206,-84 -278,-151 -66,-60 -96,-115 -97,-171 v -36 l 118,-7 c 434,-24 826,-181 1080,-429 40,-40 99,-109 130,-155 64,-95 50,-96 127,14 59,83 201,212 290,263 313,179 810,220 1285,104 348,-84 624,-264 775,-507 49,-80 115,-249 115,-298 0,-50 15,-29 39,55 29,99 40,302 22,400 -42,222 -161,426 -324,556 -121,95 -315,181 -451,199 l -58,7 -19,73 c -10,40 -36,110 -58,157 -153,327 -483,581 -850,654 -100,20 -237,31 -306,25 z"
         id="path77"
         style="fill:#0000ff" />
      <path
         d="m 3655,6905 c -319,-43 -591,-183 -803,-409 -514,-553 -487,-1527 58,-2039 279,-262 665,-389 1088,-357 521,40 932,332 1090,775 28,76 52,184 44,189 -4,2 -147,5 -319,5 l -312,2 -32,-63 c -83,-166 -218,-276 -397,-322 -94,-25 -286,-22 -382,4 -128,36 -238,101 -318,189 -46,49 -118,159 -143,218 -71,165 -98,411 -64,588 68,361 296,595 620,635 284,35 576,-108 685,-335 l 31,-65 h 320 c 189,0 319,4 319,9 0,51 -28,183 -55,258 -156,437 -665,737 -1240,732 -55,-1 -140,-7 -190,-14 z"
         id="path79"
         style="fill:#0000ff" />
      <path
         d="m 6200,6770 c -306,-20 -507,-102 -663,-270 -72,-78 -124,-170 -159,-280 -20,-65 -23,-96 -23,-225 0,-137 2,-157 28,-235 58,-175 175,-299 372,-396 120,-58 168,-73 535,-169 282,-74 380,-105 431,-140 151,-100 121,-299 -56,-375 -219,-94 -619,-12 -930,190 -44,29 -89,61 -100,71 -21,18 -22,17 -210,-193 l -189,-212 45,-38 c 172,-149 411,-268 664,-328 170,-41 276,-53 470,-53 249,0 403,33 582,123 269,135 417,358 430,651 12,261 -76,462 -262,595 -140,99 -262,141 -870,299 -260,67 -335,123 -335,250 0,192 243,278 580,204 132,-29 294,-101 425,-189 41,-28 78,-50 83,-50 4,0 75,93 156,206 l 148,206 -24,25 c -42,46 -172,138 -253,180 -170,88 -358,135 -603,153 -75,5 -141,9 -147,8 -5,0 -62,-4 -125,-8 z"
         id="path81"
         style="fill:#0000ff" />
    </g>
  </g>
</svg>
